<?xml version="1.0" encoding="UTF-8"?>
<svg xmlns="http://www.w3.org/2000/svg" viewBox="0 0 1000 598" width="1000" height="598" class="rg-canvas rg-theme-dark" font-family="'Segoe UI', 'Hiragino Sans', 'Noto Sans JP', 'Yu Gothic UI', 'Meiryo', sans-serif"><defs><marker id="arrow-end-slate" viewBox="0 0 10 10" refX="9" refY="5" markerWidth="7" markerHeight="7" orient="auto"><path d="M0 0 L10 5 L0 10 z" fill="#94a3b8"></path></marker><marker id="arrow-start-slate" viewBox="0 0 10 10" refX="1" refY="5" markerWidth="7" markerHeight="7" orient="auto-start-reverse"><path d="M0 0 L10 5 L0 10 z" fill="#94a3b8"></path></marker></defs><rect x="0" y="0" width="1000" height="598" fill="#0f172a" class="rg-bg"></rect><text x="500" y="40" text-anchor="middle" font-size="20" font-weight="800" fill="#e2e8f0" class="rg-title">全体像：英文は端末で暗号化してから Cloudflare へ</text><text x="980" y="588" text-anchor="end" font-size="11" fill="#94a3b8" class="rg-source">eng-analyzer 技術解説</text><g class="rg-cells"><rect x="80" y="112" width="168" height="132" fill="transparent" data-kind="cell" data-col="1" data-row="1"></rect><rect x="248" y="112" width="168" height="132" fill="transparent" data-kind="cell" data-col="2" data-row="1"></rect><rect x="416" y="112" width="168" height="132" fill="transparent" data-kind="cell" data-col="3" data-row="1"></rect><rect x="584" y="112" width="168" height="132" fill="transparent" data-kind="cell" data-col="4" data-row="1"></rect><rect x="752" y="112" width="168" height="132" fill="transparent" data-kind="cell" data-col="5" data-row="1"></rect><rect x="80" y="244" width="168" height="132" fill="transparent" data-kind="cell" data-col="1" data-row="2"></rect><rect x="248" y="244" width="168" height="132" fill="transparent" data-kind="cell" data-col="2" data-row="2"></rect><rect x="416" y="244" width="168" height="132" fill="transparent" data-kind="cell" data-col="3" data-row="2"></rect><rect x="584" y="244" width="168" height="132" fill="transparent" data-kind="cell" data-col="4" data-row="2"></rect><rect x="752" y="244" width="168" height="132" fill="transparent" data-kind="cell" data-col="5" data-row="2"></rect><rect x="80" y="376" width="168" height="132" fill="transparent" data-kind="cell" data-col="1" data-row="3"></rect><rect x="248" y="376" width="168" height="132" fill="transparent" data-kind="cell" data-col="2" data-row="3"></rect><rect x="416" y="376" width="168" height="132" fill="transparent" data-kind="cell" data-col="3" data-row="3"></rect><rect x="584" y="376" width="168" height="132" fill="transparent" data-kind="cell" data-col="4" data-row="3"></rect><rect x="752" y="376" width="168" height="132" fill="transparent" data-kind="cell" data-col="5" data-row="3"></rect></g><g class="rg-grid" style="display:none"><line x1="80" y1="112" x2="80" y2="508" stroke="rgba(226,232,240,0.10)" stroke-width="1"></line><line x1="248" y1="112" x2="248" y2="508" stroke="rgba(226,232,240,0.10)" stroke-width="1"></line><line x1="416" y1="112" x2="416" y2="508" stroke="rgba(226,232,240,0.10)" stroke-width="1"></line><line x1="584" y1="112" x2="584" y2="508" stroke="rgba(226,232,240,0.10)" stroke-width="1"></line><line x1="752" y1="112" x2="752" y2="508" stroke="rgba(226,232,240,0.10)" stroke-width="1"></line><line x1="920" y1="112" x2="920" y2="508" stroke="rgba(226,232,240,0.10)" stroke-width="1"></line><line x1="80" y1="112" x2="920" y2="112" stroke="rgba(226,232,240,0.10)" stroke-width="1"></line><line x1="80" y1="244" x2="920" y2="244" stroke="rgba(226,232,240,0.10)" stroke-width="1"></line><line x1="80" y1="376" x2="920" y2="376" stroke="rgba(226,232,240,0.10)" stroke-width="1"></line><line x1="80" y1="508" x2="920" y2="508" stroke="rgba(226,232,240,0.10)" stroke-width="1"></line></g><rect id="rg-cell-highlight" width="160" height="124" rx="10" fill="none" stroke="#2563eb" stroke-width="2" stroke-dasharray="6 4" style="display:none; pointer-events:none;"></rect><rect id="rg-zone-preview" rx="16" fill="rgba(37,99,235,0.12)" stroke="#2563eb" stroke-width="2" stroke-dasharray="6 4" style="display:none; pointer-events:none;"></rect><g class="rg-zones"><g class="rg-zone" data-kind="zone" data-id="zone1"><rect x="90" y="122" width="484" height="244" rx="18" fill="rgba(74,222,128,0.16)" stroke="rgba(74,222,128,0.4)" stroke-width="1.5"></rect><text x="104" y="146" font-size="13" font-weight="700" fill="#e2e8f0" class="rg-zone-label">端末のブラウザの中</text></g><g class="rg-zone" data-kind="zone" data-id="zone2"><rect x="762" y="122" width="148" height="244" rx="18" fill="rgba(251,146,60,0.16)" stroke="rgba(251,146,60,0.4)" stroke-width="1.5"></rect><text x="776" y="146" font-size="13" font-weight="700" fill="#e2e8f0" class="rg-zone-label">Cloudflare</text></g><g class="rg-zone" data-kind="zone" data-id="zone3"><rect x="258" y="386" width="316" height="112" rx="18" fill="rgba(148,163,184,0.16)" stroke="rgba(148,163,184,0.4)" stroke-width="1.5"></rect><text x="272" y="410" font-size="13" font-weight="700" fill="#e2e8f0" class="rg-zone-label">外部サービス（任意）</text></g></g><g class="rg-edges"><g class="rg-edge" data-kind="edge" data-id="edge1"><line x1="190" y1="178" x2="300.8" y2="178" stroke="transparent" stroke-width="16"></line><line x1="190" y1="178" x2="300.8" y2="178" stroke="#94a3b8" stroke-width="1" marker-end="url(#arrow-end-slate)"></line><rect class="label-bg" rx="4" ry="4" x="231" y="166" width="34" height="20" fill="rgba(15,23,42,0.88)"></rect><text x="248" y="178" text-anchor="middle" dominant-baseline="middle" font-size="12" font-weight="600" fill="#e2e8f0">操作</text></g><g class="rg-edge" data-kind="edge" data-id="edge2"><line x1="307.4668678287404" y1="197.27603242027538" x2="184.44427680938298" y2="293.9366396497705" stroke="transparent" stroke-width="16"></line><line x1="307.4668678287404" y1="197.27603242027538" x2="184.44427680938298" y2="293.9366396497705" stroke="#94a3b8" stroke-width="1" marker-start="url(#arrow-start-slate)" marker-end="url(#arrow-end-slate)"></line><rect class="label-bg" rx="4" ry="4" x="230" y="232" width="35" height="20" fill="rgba(15,23,42,0.88)"></rect><text x="248" y="244" text-anchor="middle" dominant-baseline="middle" font-size="12" font-weight="600" fill="#e2e8f0">保存</text></g><g class="rg-edge" data-kind="edge" data-id="edge3"><line x1="363.2" y1="178" x2="474" y2="178" stroke="transparent" stroke-width="16"></line><line x1="363.2" y1="178" x2="474" y2="178" stroke="#94a3b8" stroke-width="1" marker-end="url(#arrow-end-slate)"></line><rect class="label-bg" rx="4" ry="4" x="393" y="166" width="46" height="20" fill="rgba(15,23,42,0.88)"></rect><text x="416" y="178" text-anchor="middle" dominant-baseline="middle" font-size="12" font-weight="600" fill="#e2e8f0">暗号化</text></g><g class="rg-edge" data-kind="edge" data-id="edge4"><line x1="526" y1="178" x2="810" y2="178" stroke="transparent" stroke-width="16"></line><line x1="526" y1="178" x2="810" y2="178" stroke="#94a3b8" stroke-width="1" marker-end="url(#arrow-end-slate)"></line><rect class="label-bg" rx="4" ry="4" x="633" y="166" width="70" height="20" fill="rgba(15,23,42,0.88)"></rect><text x="668" y="178" text-anchor="middle" dominant-baseline="middle" font-size="12" font-weight="600" fill="#e2e8f0">暗号文だけ</text></g><g class="rg-edge" data-kind="edge" data-id="edge5"><line x1="836" y1="204" x2="836" y2="284" stroke="transparent" stroke-width="16"></line><line x1="836" y1="204" x2="836" y2="284" stroke="#94a3b8" stroke-width="1" marker-start="url(#arrow-start-slate)" marker-end="url(#arrow-end-slate)"></line><rect class="label-bg" rx="4" ry="4" x="818" y="232" width="35" height="20" fill="rgba(15,23,42,0.88)"></rect><text x="836" y="244" text-anchor="middle" dominant-baseline="middle" font-size="12" font-weight="600" fill="#e2e8f0">保存</text></g><g class="rg-edge" data-kind="edge" data-id="edge6"><line x1="332" y1="209.2" x2="332" y2="416" stroke="transparent" stroke-width="16"></line><line x1="332" y1="209.2" x2="332" y2="416" stroke="#94a3b8" stroke-width="1" stroke-dasharray="6 5" marker-end="url(#arrow-end-slate)"></line><rect class="label-bg" rx="4" ry="4" x="302.21875" y="298" width="58.5625" height="20" fill="rgba(15,23,42,0.88)"></rect><text x="332" y="310" text-anchor="middle" dominant-baseline="middle" font-size="12" font-weight="600" fill="#e2e8f0">AIで解析</text></g><g class="rg-edge" data-kind="edge" data-id="edge7"><line x1="348.75051535642655" y1="204.32223841724175" x2="486.04123720297787" y2="420.0648013189652" stroke="transparent" stroke-width="16"></line><line x1="348.75051535642655" y1="204.32223841724175" x2="486.04123720297787" y2="420.0648013189652" stroke="#94a3b8" stroke-width="1" stroke-dasharray="6 5" marker-end="url(#arrow-end-slate)"></line><rect class="label-bg" rx="4" ry="4" x="392" y="298" width="47" height="20" fill="rgba(15,23,42,0.88)"></rect><text x="416" y="310" text-anchor="middle" dominant-baseline="middle" font-size="12" font-weight="600" fill="#e2e8f0">絵文字</text></g></g><g class="rg-nodes"><g class="rg-node" transform="translate(164,178)" data-kind="node" data-id="user"><circle r="26" fill="#1e293b" stroke="#94a3b8" stroke-width="2.2"></circle><g transform="translate(-14.95,-14.95) scale(1.2458333333333333)" fill="none" stroke="currentColor" color="#94a3b8" stroke-width="1.6" stroke-linecap="round" stroke-linejoin="round"><circle cx="12" cy="8" r="3.4"></circle><path d="M5 20c0-3.6 3.1-6.2 7-6.2s7 2.6 7 6.2"></path></g><rect class="label-bg" rx="3" ry="3" x="-23.75" y="29" width="48" height="20" fill="rgba(15,23,42,0.88)"></rect><text x="0" y="44" text-anchor="middle" font-size="12.5" font-weight="700" fill="#e2e8f0">利用者</text></g><g class="rg-node" transform="translate(332,178)" data-kind="node" data-id="app"><circle r="31.2" fill="#1e293b" stroke="#94a3b8" stroke-width="2.2"></circle><g transform="translate(-17.939999999999998,-17.939999999999998) scale(1.4949999999999999)" fill="none" stroke="currentColor" color="#94a3b8" stroke-width="1.6" stroke-linecap="round" stroke-linejoin="round"><rect x="3" y="4.2" width="18" height="15.6" rx="1.6"></rect><line x1="3" y1="8.4" x2="21" y2="8.4"></line><circle cx="6" cy="6.3" r="0.6" fill="currentColor" stroke="none"></circle></g><rect class="label-bg" rx="3" ry="3" x="-23.75" y="34.20000076293945" width="47.5" height="20" fill="rgba(15,23,42,0.88)"></rect><text x="0" y="49.2" text-anchor="middle" font-size="12.5" font-weight="700" fill="#e2e8f0">アプリ</text></g><g class="rg-node" transform="translate(500,178)" data-kind="node" data-id="crypto"><circle r="26" fill="#1e293b" stroke="#4ade80" stroke-width="2.2"></circle><g transform="translate(-14.95,-14.95) scale(1.2458333333333333)" fill="none" stroke="currentColor" color="#4ade80" stroke-width="1.6" stroke-linecap="round" stroke-linejoin="round"><rect x="5" y="11" width="14" height="9" rx="1.6"></rect><path d="M8 11V8a4 4 0 0 1 8 0v3"></path></g><rect class="label-bg" rx="3" ry="3" x="-41.203125" y="29" width="81.75634765625" height="20" fill="rgba(15,23,42,0.88)"></rect><text x="0" y="44" text-anchor="middle" font-size="12.5" font-weight="700" fill="#e2e8f0">Web Crypto</text></g><g class="rg-node" transform="translate(164,310)" data-kind="node" data-id="store"><circle r="26" fill="#1e293b" stroke="#94a3b8" stroke-width="2.2"></circle><g transform="translate(-14.95,-14.95) scale(1.2458333333333333)" fill="none" stroke="currentColor" color="#94a3b8" stroke-width="1.6" stroke-linecap="round" stroke-linejoin="round"><circle cx="12" cy="12" r="9"></circle><circle cx="12" cy="12" r="2.6"></circle><path d="M3 12h6M15 12h6"></path></g><rect class="label-bg" rx="3" ry="3" x="-41.4140625" y="29" width="84.064453125" height="20" fill="rgba(15,23,42,0.88)"></rect><text x="0" y="44" text-anchor="middle" font-size="12.5" font-weight="700" fill="#e2e8f0">localStorage</text></g><g class="rg-node" transform="translate(836,178)" data-kind="node" data-id="worker"><circle r="26" fill="#1e293b" stroke="#fb923c" stroke-width="2.2"></circle><g transform="translate(-14.95,-14.95) scale(1.2458333333333333)" fill="none" stroke="currentColor" color="#fb923c" stroke-width="1.6" stroke-linecap="round" stroke-linejoin="round"><rect x="4" y="4" width="16" height="6.2" rx="1.4"></rect><rect x="4" y="13.8" width="16" height="6.2" rx="1.4"></rect><circle cx="7.3" cy="7.1" r="0.9" fill="currentColor" stroke="none"></circle><circle cx="7.3" cy="16.9" r="0.9" fill="currentColor" stroke="none"></circle></g><rect class="label-bg" rx="3" ry="3" x="-41.2109375" y="29" width="81.85791015625" height="20" fill="rgba(15,23,42,0.88)"></rect><text x="0" y="44" text-anchor="middle" font-size="12.5" font-weight="700" fill="#e2e8f0">Worker /api</text></g><g class="rg-node" transform="translate(836,310)" data-kind="node" data-id="d1"><circle r="26" fill="#1e293b" stroke="#fb923c" stroke-width="2.2"></circle><g transform="translate(-14.95,-14.95) scale(1.2458333333333333)" fill="none" stroke="currentColor" color="#fb923c" stroke-width="1.6" stroke-linecap="round" stroke-linejoin="round"><ellipse cx="12" cy="6" rx="7" ry="2.6"></ellipse><path d="M5 6v12c0 1.4 3.1 2.6 7 2.6s7-1.2 7-2.6V6"></path><path d="M5 12c0 1.4 3.1 2.6 7 2.6s7-1.2 7-2.6"></path></g><rect class="label-bg" rx="3" ry="3" x="-13.203125" y="29" width="26.40625" height="20" fill="rgba(15,23,42,0.88)"></rect><text x="0" y="44" text-anchor="middle" font-size="12.5" font-weight="700" fill="#e2e8f0">D1</text></g><g class="rg-node" transform="translate(332,442)" data-kind="node" data-id="gemini"><circle r="26" fill="#1e293b" stroke="#94a3b8" stroke-width="2.2"></circle><g transform="translate(-14.95,-14.95) scale(1.2458333333333333)" fill="none" stroke="currentColor" color="#94a3b8" stroke-width="1.6" stroke-linecap="round" stroke-linejoin="round"><path d="M13.2 2 4.6 14h5.7l-1 8 8.6-12h-5.7z"></path></g><rect class="label-bg" rx="3" ry="3" x="-25.890625" y="29" width="52.214111328125" height="20" fill="rgba(15,23,42,0.88)"></rect><text x="0" y="44" text-anchor="middle" font-size="12.5" font-weight="700" fill="#e2e8f0">Gemini</text></g><g class="rg-node" transform="translate(500,442)" data-kind="node" data-id="emoji"><circle r="26" fill="#1e293b" stroke="#94a3b8" stroke-width="2.2"></circle><g transform="translate(-14.95,-14.95) scale(1.2458333333333333)" fill="none" stroke="currentColor" color="#94a3b8" stroke-width="1.6" stroke-linecap="round" stroke-linejoin="round"><circle cx="12" cy="12" r="8.2"></circle><ellipse cx="12" cy="12" rx="3.2" ry="8.2"></ellipse><line x1="3.8" y1="12" x2="20.2" y2="12"></line></g><rect class="label-bg" rx="3" ry="3" x="-34.125" y="29" width="68.6875" height="20" fill="rgba(15,23,42,0.88)"></rect><text x="0" y="44" text-anchor="middle" font-size="12.5" font-weight="700" fill="#e2e8f0">OpenMoji</text></g></g><g class="rg-notes"></g></svg>