<?xml version="1.0" encoding="UTF-8"?>
<svg xmlns="http://www.w3.org/2000/svg" viewBox="0 0 1000 598" width="1000" height="598" class="rg-canvas rg-theme-light" font-family="'Segoe UI', 'Hiragino Sans', 'Noto Sans JP', 'Yu Gothic UI', 'Meiryo', sans-serif"><defs><marker id="arrow-end-slate" viewBox="0 0 10 10" refX="9" refY="5" markerWidth="7" markerHeight="7" orient="auto"><path d="M0 0 L10 5 L0 10 z" fill="#475569"/></marker><marker id="arrow-start-slate" viewBox="0 0 10 10" refX="1" refY="5" markerWidth="7" markerHeight="7" orient="auto-start-reverse"><path d="M0 0 L10 5 L0 10 z" fill="#475569"/></marker></defs><rect x="0" y="0" width="1000" height="598" fill="#ffffff" class="rg-bg"/><text x="500" y="40" text-anchor="middle" font-size="20" font-weight="800" fill="#0f172a" class="rg-title">画像1枚の埋め込み方：形式と向きで3通りに分ける</text><text x="980" y="588" text-anchor="end" font-size="11" fill="#64748b" class="rg-source">screenshot-pdf 技術解説</text><g class="rg-zones"/><g class="rg-edges"><g class="rg-edge"><line x1="188.199538829449" y1="300.4930383170022" x2="475.800461170551" y2="187.50696168299783" stroke="#475569" stroke-width="1" marker-end="url(#arrow-end-slate)"/><rect class="label-bg" rx="4" ry="4" x="295.53125" y="232.1999969482422" width="72.9375" height="20" fill="rgba(255,255,255,0.92)"/><text x="332" y="244" text-anchor="middle" dominant-baseline="middle" font-size="12" font-weight="600" fill="#0f172a">PNG・JPEG</text></g><g class="rg-edge"><line x1="190" y1="310" x2="474" y2="310" stroke="#475569" stroke-width="1" marker-end="url(#arrow-end-slate)"/><rect class="label-bg" rx="4" ry="4" x="303" y="298.20001220703125" width="58" height="20" fill="rgba(255,255,255,0.92)"/><text x="332" y="310" text-anchor="middle" dominant-baseline="middle" font-size="12" font-weight="600" fill="#0f172a">回転つき</text></g><g class="rg-edge"><line x1="188.199538829449" y1="319.5069616829978" x2="475.800461170551" y2="432.4930383170022" stroke="#475569" stroke-width="1" marker-end="url(#arrow-end-slate)"/><rect class="label-bg" rx="4" ry="4" x="304.2437438964844" y="364.20001220703125" width="54.712501525878906" height="20" fill="rgba(255,255,255,0.92)"/><text x="332" y="376" text-anchor="middle" dominant-baseline="middle" font-size="12" font-weight="600" fill="#0f172a">WebP等</text></g><g class="rg-edge"><line x1="524.199538829449" y1="187.50696168299783" x2="809.3805072876061" y2="299.5423421487024" stroke="#475569" stroke-width="1" marker-end="url(#arrow-end-slate)"/><rect class="label-bg" rx="4" ry="4" x="645" y="232.1999969482422" width="46" height="20" fill="rgba(255,255,255,0.92)"/><text x="668" y="244" text-anchor="middle" dominant-baseline="middle" font-size="12" font-weight="600" fill="#0f172a">無劣化</text></g><g class="rg-edge"><line x1="526" y1="310" x2="807.4" y2="310" stroke="#475569" stroke-width="1" marker-end="url(#arrow-end-slate)"/></g><g class="rg-edge"><line x1="524.199538829449" y1="432.4930383170022" x2="809.3805072876061" y2="320.4576578512976" stroke="#475569" stroke-width="1" marker-end="url(#arrow-end-slate)"/></g></g><g class="rg-nodes"><g class="rg-node" transform="translate(164,310)"><circle r="26" fill="#ffffff" stroke="#ea580c" stroke-width="2.2"/><g transform="translate(-14.95,-14.95) scale(1.2458333333333333)" fill="none" stroke="currentColor" color="#ea580c" stroke-width="1.6" stroke-linecap="round" stroke-linejoin="round"><path d="M6 2.2h7.2l4.8 4.8v14.8H6z"/><path d="M13.2 2.2v4.8H18"/></g><rect class="label-bg" rx="3" ry="3" x="-27.34375" y="28.399999618530273" width="54.9796257019043" height="20.80000114440918" fill="rgba(255,255,255,0.92)"/><text x="0" y="44" text-anchor="middle" font-size="12.5" font-weight="700" fill="#0f172a">画像1枚</text></g><g class="rg-node" transform="translate(500,178)"><circle r="26" fill="#ffffff" stroke="#16a34a" stroke-width="2.2"/><g transform="translate(-14.95,-14.95) scale(1.2458333333333333)" fill="none" stroke="currentColor" color="#16a34a" stroke-width="1.6" stroke-linecap="round" stroke-linejoin="round"><circle cx="12" cy="12" r="9"/><path d="M7.8 12.4 10.6 15.2 16.4 8.8"/></g><rect class="label-bg" rx="3" ry="3" x="-29.993749618530273" y="28.399999618530273" width="59.98749923706055" height="20.80000114440918" fill="rgba(255,255,255,0.92)"/><text x="0" y="44" text-anchor="middle" font-size="12.5" font-weight="700" fill="#0f172a">そのまま</text></g><g class="rg-node" transform="translate(500,310)"><circle r="26" fill="#ffffff" stroke="#2563eb" stroke-width="2.2"/><g transform="translate(-14.95,-14.95) scale(1.2458333333333333)" fill="none" stroke="currentColor" color="#2563eb" stroke-width="1.6" stroke-linecap="round" stroke-linejoin="round"><path d="M4.2 12a7.8 7.8 0 0 1 13.6-5.2M19.8 4.4v5.4h-5.4"/><path d="M19.8 12a7.8 7.8 0 0 1-13.6 5.2M4.2 19.6v-5.4h5.4"/></g><rect class="label-bg" rx="3" ry="3" x="-37.275001525878906" y="28.399999618530273" width="74.55000305175781" height="20.80000114440918" fill="rgba(255,255,255,0.92)"/><text x="0" y="44" text-anchor="middle" font-size="12.5" font-weight="700" fill="#0f172a">回転→JPEG</text></g><g class="rg-node" transform="translate(500,442)"><circle r="26" fill="#ffffff" stroke="#7c3aed" stroke-width="2.2"/><g transform="translate(-14.95,-14.95) scale(1.2458333333333333)" fill="none" stroke="currentColor" color="#7c3aed" stroke-width="1.6" stroke-linecap="round" stroke-linejoin="round"><circle cx="12" cy="12" r="3.1"/><path d="M12 2.5v3.2M12 18.3v3.2M4.5 4.5l2.3 2.3M17.2 17.2l2.3 2.3M1.5 12h3.2M19.3 12h3.2M4.5 19.5l2.3-2.3M17.2 6.8l2.3-2.3"/></g><rect class="label-bg" rx="3" ry="3" x="-36.96249961853027" y="28.399999618530273" width="74.22395324707031" height="20.80000114440918" fill="rgba(255,255,255,0.92)"/><text x="0" y="44" text-anchor="middle" font-size="12.5" font-weight="700" fill="#0f172a">PNGに変換</text></g><g class="rg-node" transform="translate(836,310)"><circle r="28.6" fill="#ffffff" stroke="#475569" stroke-width="2.2"/><g transform="translate(-16.445,-16.445) scale(1.3704166666666666)" fill="none" stroke="currentColor" color="#475569" stroke-width="1.6" stroke-linecap="round" stroke-linejoin="round"><path d="M6 2.2h7.2l4.8 4.8v14.8H6z"/><path d="M13.2 2.2v4.8H18"/></g><rect class="label-bg" rx="3" ry="3" x="-45.3125" y="31" width="90.625" height="20.80000114440918" fill="rgba(255,255,255,0.92)"/><text x="0" y="46.6" text-anchor="middle" font-size="12.5" font-weight="700" fill="#0f172a">pdf-lib で貼る</text></g></g><g class="rg-notes"><g class="rg-note"><line stroke="#475569" stroke-width="1.2" stroke-dasharray="3 3" x1="836" y1="362.6" x2="836" y2="389.6"/><rect rx="8" fill="rgba(255,255,255,0.92)" stroke="#475569" stroke-width="1.2" x="722.5187454223633" y="368.6" width="226.96250915527344" height="42"/><text text-anchor="middle" font-size="11" fill="#0f172a" x="836" y="385.6">「軽量化」ON：長辺1600pxのJPEGを試し</text><text text-anchor="middle" font-size="11" fill="#0f172a" x="836" y="400.6">元より小さい時だけ採用</text></g></g></svg>