<?xml version="1.0" encoding="UTF-8"?>
<svg xmlns="http://www.w3.org/2000/svg" viewBox="0 0 496 466" width="496" height="466" class="rg-canvas rg-theme-dark" font-family="'Segoe UI', 'Hiragino Sans', 'Noto Sans JP', 'Yu Gothic UI', 'Meiryo', sans-serif"><defs><marker id="arrow-end-slate" viewBox="0 0 10 10" refX="9" refY="5" markerWidth="7" markerHeight="7" orient="auto"><path d="M0 0 L10 5 L0 10 z" fill="#94a3b8"/></marker><marker id="arrow-start-slate" viewBox="0 0 10 10" refX="1" refY="5" markerWidth="7" markerHeight="7" orient="auto-start-reverse"><path d="M0 0 L10 5 L0 10 z" fill="#94a3b8"/></marker></defs><rect x="0" y="0" width="496" height="466" fill="#0f172a" class="rg-bg"/><text x="248" y="40" text-anchor="middle" font-size="20" font-weight="800" fill="#e2e8f0" class="rg-title">1ページ4枚：N型（左上→左下→右上→右下）</text><text x="476" y="456" text-anchor="end" font-size="11" fill="#94a3b8" class="rg-source">screenshot-pdf 技術解説</text><g class="rg-zones"><g class="rg-zone"><rect x="90" y="122" width="316" height="244" rx="18" fill="rgba(96,165,250,0.16)" stroke="rgba(96,165,250,0.4)" stroke-width="1.5"/><text x="104" y="146" font-size="13" font-weight="700" fill="#e2e8f0" class="rg-zone-label">A4 1ページ（余白24pt・すき間16pt）</text></g></g><g class="rg-edges"><g class="rg-edge"><line x1="164" y1="204" x2="164" y2="284" stroke="#94a3b8" stroke-width="1" marker-end="url(#arrow-end-slate)"/></g><g class="rg-edge"><line x1="184.44427680938298" y1="293.9366396497705" x2="311.555723190617" y2="194.0633603502295" stroke="#94a3b8" stroke-width="1" marker-end="url(#arrow-end-slate)"/></g><g class="rg-edge"><line x1="332" y1="204" x2="332" y2="284" stroke="#94a3b8" stroke-width="1" marker-end="url(#arrow-end-slate)"/></g></g><g class="rg-nodes"><g class="rg-node" transform="translate(164,178)"><circle r="26" fill="#1e293b" stroke="#fb923c" stroke-width="2.2"/><g transform="translate(-14.95,-14.95) scale(1.2458333333333333)" fill="none" stroke="currentColor" color="#fb923c" stroke-width="1.6" stroke-linecap="round" stroke-linejoin="round"><rect x="8" y="3" width="8" height="18" rx="1.6"/><line x1="11" y1="18" x2="13" y2="18"/></g><rect class="label-bg" rx="3" ry="3" x="-21.09375" y="28.399999618530273" width="42.1875" height="20.80000114440918" fill="rgba(15,23,42,0.88)"/><text x="0" y="44" text-anchor="middle" font-size="12.5" font-weight="700" fill="#e2e8f0">1枚目</text></g><g class="rg-node" transform="translate(164,310)"><circle r="26" fill="#1e293b" stroke="#fb923c" stroke-width="2.2"/><g transform="translate(-14.95,-14.95) scale(1.2458333333333333)" fill="none" stroke="currentColor" color="#fb923c" stroke-width="1.6" stroke-linecap="round" stroke-linejoin="round"><rect x="8" y="3" width="8" height="18" rx="1.6"/><line x1="11" y1="18" x2="13" y2="18"/></g><rect class="label-bg" rx="3" ry="3" x="-21.09375" y="28.399999618530273" width="42.1875" height="20.80000114440918" fill="rgba(15,23,42,0.88)"/><text x="0" y="44" text-anchor="middle" font-size="12.5" font-weight="700" fill="#e2e8f0">2枚目</text></g><g class="rg-node" transform="translate(332,178)"><circle r="26" fill="#1e293b" stroke="#fb923c" stroke-width="2.2"/><g transform="translate(-14.95,-14.95) scale(1.2458333333333333)" fill="none" stroke="currentColor" color="#fb923c" stroke-width="1.6" stroke-linecap="round" stroke-linejoin="round"><rect x="8" y="3" width="8" height="18" rx="1.6"/><line x1="11" y1="18" x2="13" y2="18"/></g><rect class="label-bg" rx="3" ry="3" x="-21.09375" y="28.399999618530273" width="42.1875" height="20.80000114440918" fill="rgba(15,23,42,0.88)"/><text x="0" y="44" text-anchor="middle" font-size="12.5" font-weight="700" fill="#e2e8f0">3枚目</text></g><g class="rg-node" transform="translate(332,310)"><circle r="26" fill="#1e293b" stroke="#fb923c" stroke-width="2.2"/><g transform="translate(-14.95,-14.95) scale(1.2458333333333333)" fill="none" stroke="currentColor" color="#fb923c" stroke-width="1.6" stroke-linecap="round" stroke-linejoin="round"><rect x="8" y="3" width="8" height="18" rx="1.6"/><line x1="11" y1="18" x2="13" y2="18"/></g><rect class="label-bg" rx="3" ry="3" x="-21.09375" y="28.399999618530273" width="42.1875" height="20.80000114440918" fill="rgba(15,23,42,0.88)"/><text x="0" y="44" text-anchor="middle" font-size="12.5" font-weight="700" fill="#e2e8f0">4枚目</text></g></g><g class="rg-notes"><g class="rg-note"><line stroke="#fb923c" stroke-width="1.2" stroke-dasharray="3 3" x1="332" y1="360" x2="332" y2="387"/><rect rx="8" fill="rgba(15,23,42,0.88)" stroke="#fb923c" stroke-width="1.2" x="234.2750015258789" y="366" width="195.4499969482422" height="42"/><text text-anchor="middle" font-size="11" fill="#e2e8f0" x="332" y="383">1コマ ≒ 266 × 389 pt</text><text text-anchor="middle" font-size="11" fill="#e2e8f0" x="332" y="398">画像は縦横比を保って中央に収める</text></g></g></svg>