<?xml version="1.0" encoding="UTF-8"?>
<svg xmlns="http://www.w3.org/2000/svg" viewBox="0 0 1000 466" width="1000" height="466" class="rg-canvas rg-theme-light" font-family="'Segoe UI', 'Hiragino Sans', 'Noto Sans JP', 'Yu Gothic UI', 'Meiryo', sans-serif"><defs><marker id="arrow-end-slate" viewBox="0 0 10 10" refX="9" refY="5" markerWidth="7" markerHeight="7" orient="auto"><path d="M0 0 L10 5 L0 10 z" fill="#475569"/></marker><marker id="arrow-start-slate" viewBox="0 0 10 10" refX="1" refY="5" markerWidth="7" markerHeight="7" orient="auto-start-reverse"><path d="M0 0 L10 5 L0 10 z" fill="#475569"/></marker></defs><rect x="0" y="0" width="1000" height="466" fill="#ffffff" class="rg-bg"/><text x="500" y="40" text-anchor="middle" font-size="20" font-weight="800" fill="#0f172a" class="rg-title">取得の流れ：集めてから、1件ずつ開いて撮る</text><text x="980" y="456" text-anchor="end" font-size="11" fill="#64748b" class="rg-source">screenshot-x 技術解説</text><g class="rg-zones"/><g class="rg-edges"><g class="rg-edge"><line x1="190" y1="178" x2="306" y2="178" stroke="#475569" stroke-width="1" marker-end="url(#arrow-end-slate)"/></g><g class="rg-edge"><line x1="358" y1="178" x2="474" y2="178" stroke="#475569" stroke-width="1" marker-end="url(#arrow-end-slate)"/><rect class="label-bg" rx="4" ry="4" x="393" y="166.1999969482422" width="46.79999923706055" height="20" fill="rgba(255,255,255,0.92)"/><text x="416" y="178" text-anchor="middle" dominant-baseline="middle" font-size="12" font-weight="600" fill="#0f172a">古い順</text></g><g class="rg-edge"><line x1="526" y1="178" x2="642" y2="178" stroke="#475569" stroke-width="1" marker-end="url(#arrow-end-slate)"/></g><g class="rg-edge"><line x1="694" y1="178" x2="810" y2="178" stroke="#475569" stroke-width="1" marker-end="url(#arrow-end-slate)"/></g><g class="rg-edge"><line x1="836" y1="204" x2="836" y2="284" stroke="#475569" stroke-width="1" marker-end="url(#arrow-end-slate)"/><rect class="label-bg" rx="4" ry="4" x="813" y="232.1999969482422" width="46" height="20" fill="rgba(255,255,255,0.92)"/><text x="836" y="244" text-anchor="middle" dominant-baseline="middle" font-size="12" font-weight="600" fill="#0f172a">期間内</text></g><g class="rg-edge"><line x1="810" y1="310" x2="694" y2="310" stroke="#475569" stroke-width="1" marker-end="url(#arrow-end-slate)"/></g><g class="rg-edge"><line x1="642" y1="310" x2="526" y2="310" stroke="#475569" stroke-width="1" marker-end="url(#arrow-end-slate)"/></g></g><g class="rg-nodes"><g class="rg-node" transform="translate(164,178)"><circle r="26" fill="#ffffff" stroke="#ea580c" stroke-width="2.2"/><g transform="translate(-14.95,-14.95) scale(1.2458333333333333)" fill="none" stroke="currentColor" color="#ea580c" stroke-width="1.6" stroke-linecap="round" stroke-linejoin="round"><circle cx="12" cy="8" r="3.4"/><path d="M5 20c0-3.6 3.1-6.2 7-6.2s7 2.6 7 6.2"/></g><rect class="label-bg" rx="3" ry="3" x="-54.98749923706055" y="28.399999618530273" width="109.9749984741211" height="20.80000114440918" fill="rgba(255,255,255,0.92)"/><text x="0" y="44" text-anchor="middle" font-size="12.5" font-weight="700" fill="#0f172a">アカウントと期間</text></g><g class="rg-node" transform="translate(332,178)"><circle r="26" fill="#ffffff" stroke="#2563eb" stroke-width="2.2"/><g transform="translate(-14.95,-14.95) scale(1.2458333333333333)" fill="none" stroke="currentColor" color="#2563eb" stroke-width="1.6" stroke-linecap="round" stroke-linejoin="round"><circle cx="10.4" cy="10.4" r="6.6"/><line x1="15.3" y1="15.3" x2="21" y2="21"/></g><rect class="label-bg" rx="3" ry="3" x="-48.73749923706055" y="28.399999618530273" width="97.7759780883789" height="20.80000114440918" fill="rgba(255,255,255,0.92)"/><text x="0" y="44" text-anchor="middle" font-size="12.5" font-weight="700" fill="#0f172a">投稿一覧を収集</text></g><g class="rg-node" transform="translate(500,178)"><circle r="26" fill="#ffffff" stroke="#2563eb" stroke-width="2.2"/><g transform="translate(-14.95,-14.95) scale(1.2458333333333333)" fill="none" stroke="currentColor" color="#2563eb" stroke-width="1.6" stroke-linecap="round" stroke-linejoin="round"><path d="M3 4.2h18l-7 8.2v6.1l-4 2v-8.1z"/></g><rect class="label-bg" rx="3" ry="3" x="-48.73749923706055" y="28.399999618530273" width="97.4749984741211" height="20.80000114440918" fill="rgba(255,255,255,0.92)"/><text x="0" y="44" text-anchor="middle" font-size="12.5" font-weight="700" fill="#0f172a">取得済みを除く</text></g><g class="rg-node" transform="translate(668,178)"><circle r="26" fill="#ffffff" stroke="#2563eb" stroke-width="2.2"/><g transform="translate(-14.95,-14.95) scale(1.2458333333333333)" fill="none" stroke="currentColor" color="#2563eb" stroke-width="1.6" stroke-linecap="round" stroke-linejoin="round"><rect x="3" y="4.2" width="18" height="15.6" rx="1.6"/><line x1="3" y1="8.4" x2="21" y2="8.4"/><circle cx="6" cy="6.3" r="0.6" fill="currentColor" stroke="none"/></g><rect class="label-bg" rx="3" ry="3" x="-39.837501525878906" y="28.399999618530273" width="79.67500305175781" height="20.80000114440918" fill="rgba(255,255,255,0.92)"/><text x="0" y="44" text-anchor="middle" font-size="12.5" font-weight="700" fill="#0f172a">1件ずつ開く</text></g><g class="rg-node" transform="translate(836,178)"><circle r="26" fill="#ffffff" stroke="#7c3aed" stroke-width="2.2"/><g transform="translate(-14.95,-14.95) scale(1.2458333333333333)" fill="none" stroke="currentColor" color="#7c3aed" stroke-width="1.6" stroke-linecap="round" stroke-linejoin="round"><circle cx="12" cy="12" r="9"/><path d="M12 6.8v5.6l4 2.2"/></g><rect class="label-bg" rx="3" ry="3" x="-54.98749923706055" y="28.399999618530273" width="110.27197265625" height="20.80000114440918" fill="rgba(255,255,255,0.92)"/><text x="0" y="44" text-anchor="middle" font-size="12.5" font-weight="700" fill="#0f172a">正確な日時で確認</text></g><g class="rg-node" transform="translate(836,310)"><circle r="26" fill="#ffffff" stroke="#2563eb" stroke-width="2.2"/><g transform="translate(-14.95,-14.95) scale(1.2458333333333333)" fill="none" stroke="currentColor" color="#2563eb" stroke-width="1.6" stroke-linecap="round" stroke-linejoin="round"><rect x="6" y="6" width="12" height="12" rx="1.2"/><rect x="9.3" y="9.3" width="5.4" height="5.4"/><path d="M9 2.2v3M15 2.2v3M9 18.8v3M15 18.8v3M2.2 9h3M2.2 15h3M18.8 9h3M18.8 15h3"/></g><rect class="label-bg" rx="3" ry="3" x="-54.98749923706055" y="28.399999618530273" width="109.9749984741211" height="20.80000114440918" fill="rgba(255,255,255,0.92)"/><text x="0" y="44" text-anchor="middle" font-size="12.5" font-weight="700" fill="#0f172a">撮影（返信まで）</text></g><g class="rg-node" transform="translate(668,310)"><circle r="26" fill="#ffffff" stroke="#16a34a" stroke-width="2.2"/><g transform="translate(-14.95,-14.95) scale(1.2458333333333333)" fill="none" stroke="currentColor" color="#16a34a" stroke-width="1.6" stroke-linecap="round" stroke-linejoin="round"><circle cx="12" cy="12" r="9"/><circle cx="12" cy="12" r="2.6"/><path d="M3 12h6M15 12h6"/></g><rect class="label-bg" rx="3" ry="3" x="-68.20000076293945" y="28.399999618530273" width="136.7039337158203" height="20.80000114440918" fill="rgba(255,255,255,0.92)"/><text x="0" y="44" text-anchor="middle" font-size="12.5" font-weight="700" fill="#0f172a">PNG保存・台帳に追記</text></g><g class="rg-node" transform="translate(500,310)"><circle r="26" fill="#ffffff" stroke="#16a34a" stroke-width="2.2"/><g transform="translate(-14.95,-14.95) scale(1.2458333333333333)" fill="none" stroke="currentColor" color="#16a34a" stroke-width="1.6" stroke-linecap="round" stroke-linejoin="round"><circle cx="12" cy="12" r="9"/><path d="M7.8 12.4 10.6 15.2 16.4 8.8"/></g><rect class="label-bg" rx="3" ry="3" x="-49.73749923706055" y="28.399999618530273" width="99.77115631103516" height="20.80000114440918" fill="rgba(255,255,255,0.92)"/><text x="0" y="44" text-anchor="middle" font-size="12.5" font-weight="700" fill="#0f172a">SHA-256を記録</text></g></g><g class="rg-notes"><g class="rg-note"><line stroke="#2563eb" stroke-width="1.2" stroke-dasharray="3 3" x1="332" y1="152" x2="332" y2="117"/><rect rx="8" fill="rgba(255,255,255,0.92)" stroke="#2563eb" stroke-width="1.2" x="253.03125" y="96" width="157.9375" height="42"/><text text-anchor="middle" font-size="11" fill="#0f172a" x="332" y="113">画面の7割ずつスクロール</text><text text-anchor="middle" font-size="11" fill="#0f172a" x="332" y="128">古い投稿が8件続いたら終了</text></g><g class="rg-note"><line stroke="#7c3aed" stroke-width="1.2" stroke-dasharray="3 3" x1="836" y1="152" x2="836" y2="117"/><rect rx="8" fill="rgba(255,255,255,0.92)" stroke="#7c3aed" stroke-width="1.2" x="765.5" y="96" width="141" height="42"/><text text-anchor="middle" font-size="11" fill="#0f172a" x="836" y="113">期間外なら保存しない</text><text text-anchor="middle" font-size="11" fill="#0f172a" x="836" y="128">日時が読めなければ保留</text></g></g></svg>